<svg xmlns="http://www.w3.org/2000/svg" width="242.592" height="33.903" viewBox="0 0 242.592 33.903"><g transform="translate(-90 -345)"><g transform="translate(89.994 345.004)"><path d="M10.257,25.69c-5.452.116-7.194-.54-7.691-.829A5.15,5.15,0,0,1,7.5,15.822l6.192,9.712C12.741,25.6,11.534,25.666,10.257,25.69Z" fill="#ff83cf"/><path d="M22.1,16.069c-.739,3.11-5.15,10.8-5.15,12.781a5.151,5.151,0,0,0,10.3,0C27.25,26.872,23.04,19.439,22.1,16.069Z" fill="#00cdbe"/><path d="M15.491,19.061C14.58,16,9.749,8.561,9.639,6.584a5.151,5.151,0,0,1,10.287-.571C20.035,7.988,16.249,15.643,15.491,19.061Z" fill="#1b87eb"/><path d="M33.944,25.69c5.451.116,7.194-.54,7.69-.829a5.15,5.15,0,0,0-4.93-9.039l-6.191,9.712C31.457,25.6,32.663,25.666,33.944,25.69Z" fill="#5abc03"/><path d="M28.709,19.061C29.62,16,34.451,8.561,34.56,6.584a5.151,5.151,0,0,0-10.285-.571C24.163,7.988,27.95,15.643,28.709,19.061Z" fill="#ff9700"/><path d="M70.585,31.942H69.148l-4.3-12.407L60.672,31.942H59.238L52.775,12h3.641L60.11,23.871,64.1,12h1.53l4,11.869L73.306,12h3.641Z" fill="#4f4f4f"/><path d="M78.166,24.45a7.6,7.6,0,0,1,1.9-5.358,7.31,7.31,0,0,1,10.1-.082,9.042,9.042,0,0,1-.033,10.9,7.339,7.339,0,0,1-10.152-.02A7.9,7.9,0,0,1,78.166,24.45Zm3.492,0q0,4.753,3.424,4.753a2.951,2.951,0,0,0,2.492-1.236,5.819,5.819,0,0,0,.917-3.517q0-4.686-3.409-4.688A2.965,2.965,0,0,0,82.582,21a5.652,5.652,0,0,0-.929,3.452Z" fill="#4f4f4f"/><path d="M104.358,20.423a3.528,3.528,0,0,0-1.974-.591,2.684,2.684,0,0,0-2.077,1.06,3.858,3.858,0,0,0-.9,2.593v8.19H96.048V17.3h3.359v1.316a4.769,4.769,0,0,1,3.747-1.584,5.377,5.377,0,0,1,2.632.523Z" fill="#4f4f4f"/><path d="M117.818,31.673l-4.229-6.512-1.612,1.706v4.806h-3.356V11.935l3.356-.805V22.813l4.8-5.52h4.042l-4.861,5.452,5.855,8.928Z" fill="#4f4f4f"/><path d="M124.175,30.746l1.2-2.671a5.308,5.308,0,0,0,3.4,1.195q1.961,0,1.96-1.4a1.717,1.717,0,0,0-.59-1.343,9.015,9.015,0,0,0-2.3-1.234q-3.719-1.545-3.719-4.324a3.4,3.4,0,0,1,1.424-2.907,6.015,6.015,0,0,1,3.641-1.041,9.133,9.133,0,0,1,4.214,1.008l-.966,2.6a4.572,4.572,0,0,0-3.063-.941c-1.17,0-1.759.466-1.759,1.4a1.261,1.261,0,0,0,.578.993,11.949,11.949,0,0,0,2.473,1.188,6.333,6.333,0,0,1,2.725,1.806,4.02,4.02,0,0,1,.832,2.564,3.768,3.768,0,0,1-1.482,3.15,6.451,6.451,0,0,1-4.037,1.148,9.086,9.086,0,0,1-2.3-.236A11.3,11.3,0,0,1,124.175,30.746Z" fill="#4f4f4f"/><path d="M75.554,7.163l.474-1.151a2.613,2.613,0,0,0,1.5.533q1.132,0,1.134-.79a1.12,1.12,0,0,0-.27-.707,3.4,3.4,0,0,0-1.1-.753,5.283,5.283,0,0,1-1.124-.687,1.856,1.856,0,0,1-.444-.642,2.091,2.091,0,0,1-.157-.819,1.8,1.8,0,0,1,.617-1.4A2.279,2.279,0,0,1,77.762.2a2.93,2.93,0,0,1,1.845.47l-.391,1.106a2.411,2.411,0,0,0-1.427-.484.961.961,0,0,0-.692.234.812.812,0,0,0-.245.61q0,.621,1.382,1.3a4.589,4.589,0,0,1,1.049.654,2.029,2.029,0,0,1,.486.7,2.218,2.218,0,0,1,.17.888,1.786,1.786,0,0,1-.695,1.447,2.858,2.858,0,0,1-1.862.569A3.309,3.309,0,0,1,75.554,7.163Z" fill="#ababab"/><path d="M84.41,7.555c-.023-.075-.045-.15-.064-.225s-.034-.138-.045-.193a2.457,2.457,0,0,1-.665.407,2.11,2.11,0,0,1-.8.155A1.642,1.642,0,0,1,81.7,7.316a1.382,1.382,0,0,1-.489-1.065,1.257,1.257,0,0,1,.17-.653,1.638,1.638,0,0,1,.511-.527,3.437,3.437,0,0,1,.827-.372,12,12,0,0,1,1.278-.335l.271-.056V3.73c0-.334-.069-.545-.206-.631a1.113,1.113,0,0,0-.615-.188.993.993,0,0,0-.662.229.625.625,0,0,0-.2.515v.11H81.277v-.1a1.254,1.254,0,0,1,.319-.726,1.459,1.459,0,0,1,.327-.3,2.52,2.52,0,0,1,.488-.262,2.82,2.82,0,0,1,1.067-.188,3.271,3.271,0,0,1,.559.048,2.48,2.48,0,0,1,.942.366,1.01,1.01,0,0,1,.277.248,1.391,1.391,0,0,1,.181.465,3.156,3.156,0,0,1,.064.672V6.326c0,.115,0,.232.011.351a3.2,3.2,0,0,0,.047.414c.03.147.067.3.115.462Zm-.143-2.527c-.173.046-.338.1-.493.144a3.919,3.919,0,0,0-.428.153A3.57,3.57,0,0,0,83,5.476a1.5,1.5,0,0,0-.232.144.793.793,0,0,0-.263.65.945.945,0,0,0,.039.279.656.656,0,0,0,.114.225.534.534,0,0,0,.189.151.55.55,0,0,0,.252.054.716.716,0,0,0,.259-.052,1.6,1.6,0,0,0,.3-.154,1.391,1.391,0,0,0,.44-.545,1.7,1.7,0,0,0,.159-.8Z" fill="#ababab"/><path d="M90.086,7.555c-.023-.075-.045-.15-.064-.225s-.034-.138-.045-.193a2.457,2.457,0,0,1-.665.407,2.11,2.11,0,0,1-.8.155,1.647,1.647,0,0,1-1.139-.383,1.382,1.382,0,0,1-.489-1.065,1.257,1.257,0,0,1,.17-.653,1.638,1.638,0,0,1,.511-.527,3.436,3.436,0,0,1,.827-.372,12,12,0,0,1,1.278-.335l.271-.056V3.73c0-.334-.069-.545-.206-.631a1.113,1.113,0,0,0-.615-.188.993.993,0,0,0-.662.229.625.625,0,0,0-.2.515v.11H86.951v-.1a1.254,1.254,0,0,1,.319-.726,1.458,1.458,0,0,1,.327-.3,2.491,2.491,0,0,1,.488-.262,2.82,2.82,0,0,1,1.067-.188,3.279,3.279,0,0,1,.559.048,2.482,2.482,0,0,1,.941.366,1.01,1.01,0,0,1,.277.248,1.391,1.391,0,0,1,.181.465,3.093,3.093,0,0,1,.064.672V6.326c0,.115,0,.232.011.351a3.2,3.2,0,0,0,.048.414c.03.147.067.3.115.462Zm-.143-2.527c-.173.046-.338.1-.492.144a4.1,4.1,0,0,0-.429.153,3.569,3.569,0,0,0-.341.151,1.5,1.5,0,0,0-.232.144.793.793,0,0,0-.263.65.945.945,0,0,0,.039.279.641.641,0,0,0,.115.225.534.534,0,0,0,.189.151.548.548,0,0,0,.252.054.716.716,0,0,0,.259-.052,1.6,1.6,0,0,0,.3-.154,1.4,1.4,0,0,0,.44-.545,1.7,1.7,0,0,0,.159-.8Z" fill="#ababab"/><path d="M92.636,7.221l.44-.982a1.965,1.965,0,0,0,1.251.44q.721,0,.721-.515a.628.628,0,0,0-.215-.493,3.34,3.34,0,0,0-.846-.455q-1.37-.57-1.368-1.591a1.252,1.252,0,0,1,.522-1.072,2.219,2.219,0,0,1,1.341-.383,3.351,3.351,0,0,1,1.552.372l-.357.959a1.672,1.672,0,0,0-1.125-.346c-.432,0-.647.17-.647.514a.461.461,0,0,0,.21.365,4.57,4.57,0,0,0,.91.439,2.31,2.31,0,0,1,1,.663,1.487,1.487,0,0,1,.305.944,1.384,1.384,0,0,1-.545,1.159,2.367,2.367,0,0,1-1.485.422,3.411,3.411,0,0,1-.849-.086A4.179,4.179,0,0,1,92.636,7.221Z" fill="#ababab"/><path d="M101.115,7.563l-1.559-2.4-.594.628v1.77H97.728V.3L98.962,0V4.3l1.767-2.032h1.488l-1.792,2.007,2.156,3.287Z" fill="#ababab"/><path d="M108.406,5.294h-3.782a1.352,1.352,0,0,0,.435.985,1.579,1.579,0,0,0,1.078.352,1.741,1.741,0,0,0,1.285-.442l.481.945a3.041,3.041,0,0,1-1.947.527,2.576,2.576,0,0,1-1.916-.708,2.679,2.679,0,0,1-.706-1.979,2.739,2.739,0,0,1,.774-2.027,2.711,2.711,0,0,1,3.7-.089,2.35,2.35,0,0,1,.7,1.749A3.465,3.465,0,0,1,108.406,5.294Zm-3.737-.928h2.6A1.159,1.159,0,0,0,105.983,3.2,1.271,1.271,0,0,0,104.669,4.366Z" fill="#ababab"/></g><path d="M1.722-2.954c.2-.252.266-.35.476-.588C3.178-4.718,4.116-5.88,4.7-6.664s.63-.812.854-.812.238,0,1.134.98A71.622,71.622,0,0,0,12.614-.574L13.5-2.492a11.471,11.471,0,0,1-1.33-1.05A50.775,50.775,0,0,1,7.63-8.022C6.566-9.226,6.23-9.45,5.544-9.45a1.679,1.679,0,0,0-.952.28,4.207,4.207,0,0,0-1.05,1.106C2.814-7.126,1.442-5.5,1.036-5.1a2.51,2.51,0,0,1-.5.42Zm15.54-7.994a7.036,7.036,0,0,1,.056,1.274c0,3.92-.322,5.726-1.33,7.336a5.752,5.752,0,0,1-1.442,1.61A4.983,4.983,0,0,1,15.96.63a8.915,8.915,0,0,0,1.932-2.59,13.109,13.109,0,0,0,1.134-5.754,29.257,29.257,0,0,1,.14-3.136Zm3.71-.1a6.059,6.059,0,0,1,.056.924v.42l-.07,7.9a6.274,6.274,0,0,1-.126,1.484l.9.952a6.092,6.092,0,0,1,.6-.252A9.246,9.246,0,0,0,25.312-1.3a8.688,8.688,0,0,0,2.226-3.262A5.868,5.868,0,0,1,26.222-5.88,6.841,6.841,0,0,1,24.85-3.318a5.628,5.628,0,0,1-2.142,1.6l.07-7.966a7.586,7.586,0,0,1,.1-1.33Zm9.366.868a9.592,9.592,0,0,1-1.792-.1v1.82A10.087,10.087,0,0,1,30.31-8.54h6.664a10.153,10.153,0,0,1-7.308,7.532A5.152,5.152,0,0,1,30.9.658a12.556,12.556,0,0,0,8.036-9.282A1.913,1.913,0,0,0,39.2-8.6a1.625,1.625,0,0,0,1.624-1.624A1.622,1.622,0,0,0,39.2-11.83a1.613,1.613,0,0,0-1.61,1.624c-.238.014-.406.028-.826.028ZM39.2-11.13a.911.911,0,0,1,.924.91A.923.923,0,0,1,39.2-9.3a.92.92,0,0,1-.91-.924A.908.908,0,0,1,39.2-11.13ZM52.486-8.918a2.624,2.624,0,0,1-1.078.238l-5.1.616V-9.828a6.813,6.813,0,0,1,.084-1.3H44.464a6.958,6.958,0,0,1,.084,1.33v1.918L43.064-7.7a11.048,11.048,0,0,1-1.232.1c-.07,0-.182,0-.336-.014l.182,1.736a8.191,8.191,0,0,1,1.554-.266l1.316-.168v3.206a5.369,5.369,0,0,0,.14,1.764,1.831,1.831,0,0,0,1.2,1.288,9.659,9.659,0,0,0,2.492.238,31.188,31.188,0,0,0,3.472-.238,8.465,8.465,0,0,1,.854-.056L52.626-2a15.5,15.5,0,0,1-4.3.546c-1.428,0-1.876-.154-1.974-.7a6.255,6.255,0,0,1-.056-1.2V-6.51c1.456-.21,2.9-.392,4.312-.56.21-.028.308-.042.532-.084-.252.42-.336.546-.532.826A7.07,7.07,0,0,1,48.3-4.354,4.631,4.631,0,0,1,49.7-3.22a10.208,10.208,0,0,0,3.43-4.088,3.455,3.455,0,0,1,.392-.686Zm3.822-.07a14.7,14.7,0,0,1,3.57,2.842l1.2-1.526a19.828,19.828,0,0,0-3.612-2.7ZM56.8.252a4.956,4.956,0,0,1,.924-.238,15.122,15.122,0,0,0,5.334-2.1,12.287,12.287,0,0,0,4.438-5.488A6.037,6.037,0,0,1,66.01-8.946a11.69,11.69,0,0,1-1.428,2.8,9.354,9.354,0,0,1-4.158,3.43A13.34,13.34,0,0,1,56.28-1.68Zm23.156-10.3a3.675,3.675,0,0,1-1.232.168c-3.416.028-3.416.028-3.64.056a6.976,6.976,0,0,0,.336-.672,7.377,7.377,0,0,1,.42-.784l-1.82-.406a8.535,8.535,0,0,1-.812,1.946,12.036,12.036,0,0,1-3.514,3.99,4.444,4.444,0,0,1,1.4,1.12A14.484,14.484,0,0,0,74.368-8.4l4.354-.042a13.376,13.376,0,0,1-1.568,3.3A18.223,18.223,0,0,0,74.34-7.014L73.276-5.768a15.849,15.849,0,0,1,2.87,2,10.163,10.163,0,0,1-2.3,1.946,14.11,14.11,0,0,1-2.73,1.4,4.443,4.443,0,0,1,1.162,1.442,13.67,13.67,0,0,0,6.384-5.348,23.482,23.482,0,0,0,1.792-3.85,2.508,2.508,0,0,1,.434-.938ZM83.594-4.4a15.369,15.369,0,0,1,2.282-.07H93.31a15.369,15.369,0,0,1,2.282.07V-6.342a13.749,13.749,0,0,1-2.268.1H85.862a13.749,13.749,0,0,1-2.268-.1Z" transform="translate(237 374)" fill="#ababab"/></g></svg>