<svg xmlns="http://www.w3.org/2000/svg" viewBox="0 0 512 512"><path d="M437 75A255 255 0 0 0 0 256a255 255 0 0 0 437 181 255 255 0 0 0 0-362zm-38 38a202 202 0 0 1 0 286 202 202 0 0 1-286 0 202 202 0 0 1 0-286 202 202 0 0 1 286 0z" class="st0"/><path d="M243 329a26 26 0 1 0 0 52 26 26 0 0 0 0-52zm-59-155 18 14c3 3 9 3 12 0 0 0 2-4 9-8s15-7 29-7c11 0 21 4 28 10 3 3 6 6 7 9 2 3 2 6 2 8 0 6-1 11-3 15l-5 7-14 10-18 9c-7 4-14 10-19 18-3 4-5 8-6 13-2 5-2 10-2 15v10c0 6 4 10 9 10h23c5 0 10-4 10-10v-14l1-2 4-3 16-8c9-5 20-12 30-24a70 70 0 0 0 16-46c0-10-2-19-7-27-6-12-16-23-29-30-12-7-27-12-43-12-20 0-37 5-50 13-12 7-18 15-18 15a10 10 0 0 0 0 15z"/></svg>