<svg xmlns="http://www.w3.org/2000/svg" version="1.0" viewBox="0 0 124 108"><path d="M51 .7c-4 .7-12.2 3.4-16.5 5.6-9.7 4.8-18.5 15-22 25.8-1.2 3.5-2.5 5.4-4.6 6.4-6 3.2-9.7 17.3-7 27.3 1.4 4.8 6.1 10.7 9.4 11.6 1.5.4 3 2.3 4.6 6.2 6.8 15.8 22.6 23.7 47.1 23.7 24.4 0 40.1-7.9 47.1-23.6 1.7-3.9 3.4-6 6-7.5 6.9-4 10.4-15.7 7.9-26.2-1-4-2.4-6.4-6.1-10.2-2.7-2.8-4.9-5.5-4.9-6.2 0-.6-1.3-3.9-3-7.4-5.7-12.1-18.5-21.7-32.9-24.8C69.9.1 56.7-.3 51 .7zM79.2 8c20 6.2 29.9 21.3 29.9 46 .2 33.2-14.2 47.9-46.7 48-33.1 0-47.7-14.6-47.5-48 0-16 3.3-25.9 11.4-34.7C37.9 6.7 59.9 2 79.2 8zM9.5 54.8c0 5.9.3 12.2.8 14.1.7 3.4.7 3.4-1.3 1.6C5 66.8 3.7 55.2 6.6 48c.9-2.2 1.9-4 2.3-4 .3 0 .6 4.8.6 10.8zm108.1-5.3c2 5.3 1.6 12.2-1 17.7-2.6 5.4-3.4 4.7-2.4-2 .5-3.1.8-9.1.6-13.4-.2-4.2 0-7.4.4-7.2.3.2 1.4 2.4 2.4 4.9z"/><path d="M34 25.7c-6.2.6-8.1 1.3-10.6 4-1.9 2.1-2.4 3.7-2.4 8 0 3 .5 6.3 1.1 7.4.8 1.6.6 2.9-.7 5.7-1 2.1-2 6.8-2.2 10.9-.3 6 0 8 2.1 12.5 1.3 3 4.1 7.1 6.2 9.1 15.8 15.4 53.1 15.4 69 0 8.2-7.9 10.9-21.3 6.4-31.2-1.9-4.2-1.9-4.6-.3-7.9 2.2-4.8 1.4-11.7-1.8-14.9-1.9-1.9-4.2-2.7-9.4-3.3-6.5-.9-49.9-1.1-57.4-.3zm53.4 5.2c6.5.6 8.2 1.1 9.7 3 2.5 3.1 2.4 5.4-.3 8.5l-2.3 2.5-16-1c-10.4-.6-21.7-.6-32 0C27.7 45 26 44.5 26 38.1c0-5.2 1.9-6.5 10.4-7.2 10.3-.8 41.8-.9 51 0zM46.1 55c1 .6 2.6 2.4 3.4 4.1 4.6 8.8-7.4 17-14.5 9.9-2.9-2.9-2.7-9.4.5-12.5 2.6-2.7 7.2-3.3 10.6-1.5zm42.4 1.5c3.2 3.1 3.4 9.6.5 12.5-4.6 4.6-11.4 3.5-14.3-2.2-1.6-3.3-1.6-4-.3-7.1 1.7-4.1 3.9-5.6 8.4-5.7 2.2 0 4.1.8 5.7 2.5z"/></svg>