<svg  viewBox="0 0 44 58" xmlns="http://www.w3.org/2000/svg"><path d="M24.266 27.008C21.133 20.742 21.116 13.628 24.223 8.88101C26.023 5.87501 29.343 3.95601 33.563 3.49801C35.677 3.26801 37.833 3.63401 39.923 4.50801C35.401 1.56254 30.1197 -0.00376592 24.723 6.79937e-06C14.298 6.79937e-06 4.865 5.70501 0 14.926C2.64 15.639 14.875 19.409 19.681 29.386C22.916 36.093 22.933 43.285 19.732 48.176C17.72 51.546 14.858 53.388 10.758 53.94C10.274 54.008 9.756 54.042 9.221 54.042C7.497 54.042 5.553 53.668 3.575 52.802C8.04394 55.6084 13.2149 57.0949 18.492 57.09C29.284 57.09 39.15 50.816 43.769 41.068C34.353 38.564 27.619 33.716 24.266 27.008Z" /></svg>
